<svg width="42" height="36" viewBox="0 0 42 36" fill="none" xmlns="http://www.w3.org/2000/svg">
<path fill-rule="evenodd" clip-rule="evenodd" d="M31.8801 35.6959C32.1827 35.8619 32.5172 35.9626 32.8617 35.9914C33.2063 36.0202 33.5531 35.9765 33.8794 35.8631C34.2058 35.7498 34.5043 35.5693 34.7556 35.3335C35.0068 35.0977 35.2053 34.812 35.3376 34.4949L42 1.28922C41.964 -0.948323 38.9029 0.406348 38.9029 0.406348L1.62879 14.9253C1.62879 14.9253 -0.135689 15.5509 0.00836374 16.6446C0.152417 17.7384 1.59318 18.2602 1.59318 18.2602L10.9565 21.3806C10.9565 21.3806 13.8014 30.5917 14.3776 32.361C14.9539 34.1303 15.3861 34.1482 15.3861 34.1482C15.5489 34.2024 15.7222 34.2165 15.8917 34.1891C16.0611 34.1617 16.2216 34.0936 16.3585 33.9909L22.4446 28.5257L31.8801 35.6959ZM33.5009 7.17259C33.5009 7.17259 34.8333 6.39338 34.7613 7.17259C34.7613 7.17259 34.9774 7.27625 34.2931 8.00542C33.6809 8.62735 18.8435 21.8489 16.8267 23.6182C16.7495 23.6699 16.686 23.7397 16.6421 23.8213C16.5982 23.9029 16.5748 23.9939 16.5744 24.0864L15.9985 28.9797C15.9867 29.088 15.938 29.1891 15.8605 29.2663C15.783 29.3435 15.6812 29.3921 15.5721 29.4042C15.463 29.4163 15.3527 29.3911 15.2599 29.3327C15.1672 29.2744 15.0977 29.1864 15.0621 29.0833L12.577 21.0661C12.5304 20.9038 12.5368 20.731 12.595 20.5725C12.6532 20.4139 12.7601 20.2777 12.901 20.1832L33.5009 7.17259Z" fill="#0037A1"/>
</svg>
