<svg width="42" height="42" viewBox="0 0 42 42" fill="none" xmlns="http://www.w3.org/2000/svg">
<path fill-rule="evenodd" clip-rule="evenodd" d="M35.9374 6.11884C34.0099 4.17465 31.7103 2.63188 29.1732 1.58114C26.6361 0.530396 23.9129 -0.00714773 21.1634 7.17667e-05C18.4028 -0.00283089 15.6686 0.53594 13.119 1.58535C10.5694 2.63477 8.25475 4.17408 6.3078 6.11457C4.36084 8.05507 2.82028 10.3584 1.77513 12.8918C0.72999 15.4253 0.200771 18.1387 0.218015 20.8759C0.252037 24.4926 1.20063 28.0431 2.97687 31.2022L0 42L11.1081 39.1638C14.1536 40.826 17.5781 41.686 21.0544 41.6617C26.6194 41.6331 31.9465 39.4211 35.8714 35.5093C39.7963 31.5974 41.9998 26.3038 41.9997 20.7859C42.0144 18.0656 41.4861 15.3692 40.4457 12.8521C39.4053 10.3349 37.8732 8.04659 35.9374 6.11884ZM21.1634 38.1236C18.0592 38.1398 15.0091 37.316 12.3422 35.7409L11.689 35.4025L5.0458 37.105L6.7518 30.6263L6.28033 29.946C4.4672 27.0496 3.56088 23.6851 3.67656 20.278C3.79224 16.871 4.92445 13.5745 6.92994 10.8055C8.93542 8.03656 11.7242 5.91957 14.9433 4.72232C18.1624 3.52507 21.6672 3.30136 25.0145 4.07949C28.3619 4.85761 31.4014 6.60261 33.7484 9.09375C36.0954 11.5849 37.6447 14.7103 38.2 18.0745C38.7553 21.4387 38.2916 24.8907 36.8679 27.9937C35.4443 31.0967 33.1246 33.7114 30.2021 35.5069C27.5079 37.2278 24.3681 38.1367 21.1634 38.1236ZM31.2545 25.5261L29.9841 24.9574C29.9841 24.9574 28.1693 24.162 27.0077 23.5933C26.8988 23.5933 26.7899 23.4817 26.6447 23.4817C26.3642 23.4935 26.0901 23.5712 25.8458 23.7085C25.8458 23.7085 25.737 23.8201 24.1398 25.6377C24.0874 25.7448 24.0046 25.8343 23.9014 25.8951C23.7982 25.9558 23.6788 25.9852 23.5589 25.9796H23.4503C23.2851 25.95 23.1331 25.8709 23.0147 25.7529L22.4338 25.5261C21.2023 25.0046 20.0719 24.2737 19.094 23.3666C18.8762 23.1398 18.5496 22.9131 18.2955 22.6863C17.4503 21.8784 16.7178 20.9621 16.1176 19.9617L16.0086 19.7349C15.8997 19.6233 15.8999 19.5081 15.791 19.2814C15.7628 19.0851 15.8008 18.8851 15.8996 18.7127C15.8996 18.7127 16.3718 18.1476 16.6985 17.8057C16.9526 17.5789 17.0612 17.2406 17.279 17.0138C17.3915 16.849 17.4688 16.663 17.5063 16.4675C17.5438 16.2719 17.5407 16.0708 17.497 15.8765C17.3881 15.3114 16.0087 12.2448 15.682 11.5573C15.4981 11.2743 15.2128 11.071 14.8835 10.9887H13.6126C13.3948 10.9887 13.1409 11.1038 12.9231 11.1038L12.8141 11.2154C12.5963 11.3306 12.3424 11.5573 12.1246 11.6689C11.9068 11.8957 11.7978 12.1224 11.5437 12.3492C10.7519 13.3554 10.3181 14.593 10.3096 15.8693C10.3213 16.7656 10.5058 17.6514 10.8538 18.4787L10.9991 18.8387C12.0188 21.0158 13.4481 22.9801 15.2101 24.6263L15.682 25.0798C16.0114 25.3558 16.3151 25.6606 16.5895 25.9904C18.9646 28.0394 21.7845 29.5174 24.8297 30.3096C25.1927 30.4211 25.6281 30.4211 25.9911 30.5327H27.1167C27.7117 30.5085 28.2941 30.3549 28.8227 30.0828C29.1857 29.8525 29.4034 29.8524 29.6575 29.6257L29.8755 29.3989C30.0933 29.1722 30.3109 29.0606 30.565 28.8339C30.7784 28.6327 30.9618 28.4025 31.1096 28.15C31.3482 27.6481 31.5074 27.1127 31.5815 26.5627V25.7709C31.4862 25.6739 31.3756 25.5925 31.2545 25.5297V25.5261Z" fill="#0037A1"/>
</svg>
