<svg width="46" height="49" viewBox="0 0 46 49" fill="none" xmlns="http://www.w3.org/2000/svg">
<path fill-rule="evenodd" clip-rule="evenodd" d="M40.8119 4.77972C39.6131 3.67727 34.7453 0.0869598 23.8838 0.0355121C23.8838 0.0355121 11.0971 -0.747227 4.88537 5.03696C1.39761 9.20844 -0.336509 14.5958 0.0541655 20.045C-0.0548126 26.4061 -0.236709 38.3383 11.1333 41.5758V46.5038C11.1333 46.5038 11.0606 48.5029 12.3683 48.9071C13.9303 49.3959 14.8751 47.8745 16.3645 46.2392C17.2 45.3352 18.3258 44.0343 19.1976 43.0127C24.0305 43.4657 28.9046 43.1018 33.6194 41.936C36.8464 41.3975 39.7921 39.7521 41.9617 37.2762C44.1313 34.8003 45.3924 31.6447 45.534 28.3391C47.0233 16.0651 44.8077 8.29287 40.8119 4.77972ZM42.1195 27.4755C42.0512 30.1821 41.0349 32.7761 39.2519 34.7952C37.4688 36.8144 35.0348 38.1273 32.384 38.5C28.3225 39.5052 24.1317 39.866 19.9608 39.5694C19.9608 39.5694 15.0203 45.5741 13.4946 47.1359C13.4066 47.2414 13.2945 47.3234 13.1678 47.3747C13.0411 47.4259 12.9039 47.4449 12.7683 47.4298C12.514 47.36 12.4411 47.0624 12.4774 46.5846C12.4774 45.9195 12.5137 38.3824 12.5137 38.3824C2.88735 35.6851 3.43234 25.5205 3.54132 20.2177C3.19641 15.6423 4.64474 11.1133 7.57346 7.60935C12.8407 2.78797 23.702 3.50088 23.702 3.50088C32.8562 3.54131 37.2516 6.33417 38.2688 7.26758C41.6471 10.2038 43.3909 17.2117 42.1195 27.4755Z" fill="#0037A1"/>
<path d="M28.3551 21C28.1934 20.9977 28.0386 20.9371 27.9208 20.83C27.803 20.723 27.7309 20.5772 27.7188 20.4214C27.7645 20.0046 27.7158 19.5832 27.5761 19.1864C27.4365 18.7895 27.2093 18.4267 26.9101 18.123C26.6109 17.8193 26.2466 17.5821 25.8431 17.4276C25.4395 17.2732 25.0061 17.2052 24.5726 17.2285C24.4124 17.213 24.2643 17.1393 24.158 17.0225C24.0517 16.9056 23.9955 16.7542 24.0003 16.5988C24.005 16.4433 24.0704 16.2954 24.1836 16.1848C24.2968 16.0742 24.4492 16.0091 24.6101 16.0027C25.2009 15.9819 25.7898 16.0808 26.3386 16.293C26.8875 16.5052 27.3842 16.8259 27.7969 17.2347C28.2097 17.6434 28.5292 18.131 28.735 18.6662C28.9408 19.2013 29.0284 19.7721 28.9919 20.3419C29.001 20.4227 28.992 20.5044 28.9659 20.5817C28.9398 20.659 28.8972 20.73 28.8406 20.7902C28.784 20.8503 28.7148 20.8982 28.6377 20.9306C28.5605 20.963 28.4768 20.9793 28.3926 20.9783C28.3926 20.9783 28.3926 21 28.3551 21Z" fill="#0037A1"/>
<path d="M31.3726 22H31.3361C31.2558 21.9991 31.1768 21.9808 31.1034 21.9461C31.03 21.9113 30.9638 21.861 30.9092 21.798C30.8547 21.7351 30.8129 21.661 30.7862 21.5801C30.7595 21.4993 30.7488 21.4135 30.7542 21.328C30.8113 20.3176 30.676 19.3053 30.3571 18.3521C30.0381 17.3988 29.5421 16.5243 28.8983 15.7811C28.2055 15.0097 27.3754 14.3936 26.4569 13.9688C25.5384 13.5439 24.5496 13.3188 23.5486 13.3067C23.4693 13.2994 23.3921 13.2754 23.3216 13.2359C23.2511 13.1965 23.1889 13.1425 23.1381 13.0771C23.0874 13.0117 23.0489 12.9361 23.0258 12.8548C23.0026 12.7736 22.9951 12.6882 23.0031 12.6036C23.0161 12.4315 23.0919 12.2717 23.2146 12.159C23.3372 12.0463 23.4964 11.9897 23.6579 12.0015C25.9854 12.0687 28.1948 13.1111 29.808 14.9032C31.3072 16.6621 32.0922 18.9835 31.9914 21.3591C31.9815 21.5289 31.9125 21.6887 31.7981 21.8073C31.6837 21.9258 31.5319 21.9945 31.3726 22Z" fill="#0037A1"/>
<path d="M34.3844 23C34.2255 22.999 34.0735 22.9338 33.9604 22.8182C33.8474 22.7026 33.7825 22.5458 33.7797 22.3814C33.8678 20.7542 33.6286 19.1259 33.0773 17.5992C32.526 16.0725 31.6745 14.6808 30.5767 13.512C29.5203 12.4533 28.2725 11.6206 26.9046 11.0615C25.5367 10.5024 24.0757 10.2278 22.6051 10.2536C22.4449 10.2508 22.2919 10.1834 22.179 10.0658C22.066 9.94826 22.0018 9.78978 22 9.62402C22.0028 9.45926 22.0678 9.3021 22.1807 9.18592C22.2937 9.06974 22.4459 9.0037 22.6051 9.00181C24.2289 8.97346 25.8419 9.27877 27.3507 9.90002C28.8596 10.5213 30.2343 11.4461 31.3952 12.621C32.6009 13.9083 33.5411 15.4356 34.159 17.1103C34.7768 18.7849 35.0595 20.572 34.9896 22.363C34.992 22.4464 34.9782 22.5294 34.9488 22.6071C34.9193 22.6848 34.8749 22.7555 34.8184 22.815C34.7619 22.8745 34.6944 22.9216 34.6199 22.9534C34.5453 22.9851 34.4651 23.001 34.3844 23Z" fill="#0037A1"/>
<path d="M25.0422 28.4406C25.2891 28.4585 25.5369 28.4242 25.7685 28.3402C26.0001 28.2562 26.2097 28.1245 26.3826 27.9543L27.3134 26.8389C27.6306 26.5004 28.0612 26.2793 28.5305 26.214C28.9998 26.1487 29.4784 26.2433 29.8827 26.4814C30.6814 26.9051 31.4523 27.3756 32.1911 27.89C32.8985 28.3905 34.3504 29.531 34.3504 29.5418C34.686 29.8055 34.909 30.1782 34.9777 30.5893C35.0463 31.0005 34.9556 31.4215 34.7227 31.7727V31.7942C34.2097 32.6488 33.5557 33.4179 32.7865 34.0716C32.2348 34.5517 31.5492 34.8661 30.8135 34.9761C30.7158 34.997 30.6152 35.0043 30.5154 34.9976C30.2371 34.9981 29.9607 34.9559 29.6963 34.8725L29.6591 34.8439C27.7892 34.2285 25.9923 33.4256 24.2978 32.4484C22.7033 31.6181 21.1836 30.6614 19.755 29.5882C19.0439 29.0542 18.3724 28.4736 17.7447 27.8507C17.7075 27.8292 17.6702 27.8006 17.6702 27.7827C17.6702 27.7649 17.5957 27.7363 17.5957 27.7148C17.5957 27.6934 17.5211 27.6683 17.5211 27.6505C17.5211 27.6326 17.4466 27.6004 17.4466 27.5825C16.8166 26.9602 16.2202 26.3075 15.6595 25.6269C14.519 24.2685 13.5098 22.8133 12.6438 21.2794C11.6322 19.6416 10.7962 17.9095 10.1491 16.1095L10.1118 16.0881C10.0379 15.8271 10.0002 15.5578 10 15.2872V15.0119C10.1408 14.3129 10.4753 13.6633 10.9681 13.1314V13.1135C11.6532 12.3778 12.458 11.7536 13.351 11.2651C13.721 11.0423 14.1624 10.9557 14.5937 11.0214C15.0249 11.0872 15.4169 11.3007 15.6967 11.6226C15.6967 11.6226 16.888 13.0062 17.4093 13.6819C17.9412 14.3897 18.4262 15.1288 18.8614 15.895C19.1128 16.2821 19.2171 16.7408 19.156 17.1932C19.0949 17.6455 18.8723 18.0636 18.5265 18.3763L17.372 19.2629C17.1907 19.4303 17.0503 19.634 16.9603 19.8596C16.8702 20.0851 16.8329 20.327 16.8512 20.5679C17.4206 22.4339 18.4688 24.1326 19.9 25.5082C21.3312 26.8837 23.0995 27.8921 25.0422 28.4406Z" fill="#0037A1"/>
</svg>
